<mxfile host="app.diagrams.net" modified="2023-02-19T14:18:38.338Z" agent="5.0 (Windows NT 10.0; Win64; x64) AppleWebKit/537.36 (KHTML, like Gecko) Chrome/107.0.0.0 Safari/537.36" etag="Xl9oVMEJadzHvnsomQ-z" version="20.8.20" type="github">
  <diagram name="第 1 页" id="aIZT4UE6F97p9WI7GZ6j">
    <mxGraphModel dx="1397" dy="754" grid="1" gridSize="10" guides="1" tooltips="1" connect="1" arrows="1" fold="1" page="1" pageScale="1" pageWidth="827" pageHeight="1169" math="0" shadow="0">
      <root>
        <mxCell id="0" />
        <mxCell id="1" parent="0" />
        <mxCell id="ktjWSUvB8bS-gP2VC31j-52" value="" style="group" vertex="1" connectable="0" parent="1">
          <mxGeometry x="40" y="580" width="620" height="80" as="geometry" />
        </mxCell>
        <mxCell id="ktjWSUvB8bS-gP2VC31j-46" value="" style="rounded=0;whiteSpace=wrap;html=1;fontSize=14;" vertex="1" parent="ktjWSUvB8bS-gP2VC31j-52">
          <mxGeometry width="620" height="80" as="geometry" />
        </mxCell>
        <mxCell id="ktjWSUvB8bS-gP2VC31j-45" value="底层支持" style="rounded=0;whiteSpace=wrap;html=1;fontSize=14;fillColor=#cfc7f4;" vertex="1" parent="ktjWSUvB8bS-gP2VC31j-52">
          <mxGeometry width="87.40983606557377" height="80" as="geometry" />
        </mxCell>
        <mxCell id="ktjWSUvB8bS-gP2VC31j-47" value="WXML" style="rounded=0;whiteSpace=wrap;html=1;fontSize=14;fillColor=#cfc7f4;" vertex="1" parent="ktjWSUvB8bS-gP2VC31j-52">
          <mxGeometry x="107.73770491803279" y="20" width="101.63934426229508" height="40" as="geometry" />
        </mxCell>
        <mxCell id="ktjWSUvB8bS-gP2VC31j-48" value="WXSS" style="rounded=0;whiteSpace=wrap;html=1;fontSize=14;fillColor=#cfc7f4;" vertex="1" parent="ktjWSUvB8bS-gP2VC31j-52">
          <mxGeometry x="232.75409836065575" y="20" width="101.63934426229508" height="40" as="geometry" />
        </mxCell>
        <mxCell id="ktjWSUvB8bS-gP2VC31j-49" value="JS" style="rounded=0;whiteSpace=wrap;html=1;fontSize=14;fillColor=#cfc7f4;" vertex="1" parent="ktjWSUvB8bS-gP2VC31j-52">
          <mxGeometry x="355.2295081967213" y="20" width="101.63934426229508" height="40" as="geometry" />
        </mxCell>
        <mxCell id="ktjWSUvB8bS-gP2VC31j-50" value="MINA" style="rounded=0;whiteSpace=wrap;html=1;fontSize=14;fillColor=#cfc7f4;" vertex="1" parent="ktjWSUvB8bS-gP2VC31j-52">
          <mxGeometry x="481.7704918032787" y="20" width="101.63934426229508" height="40" as="geometry" />
        </mxCell>
        <mxCell id="ktjWSUvB8bS-gP2VC31j-53" value="" style="group" vertex="1" connectable="0" parent="1">
          <mxGeometry x="40" y="465" width="620" height="80" as="geometry" />
        </mxCell>
        <mxCell id="ktjWSUvB8bS-gP2VC31j-10" value="" style="rounded=0;whiteSpace=wrap;html=1;fontSize=14;" vertex="1" parent="ktjWSUvB8bS-gP2VC31j-53">
          <mxGeometry x="6.0983606557377055" width="613.9016393442623" height="80" as="geometry" />
        </mxCell>
        <mxCell id="ktjWSUvB8bS-gP2VC31j-11" value="资源架构" style="rounded=0;whiteSpace=wrap;html=1;fontSize=14;fillColor=#fff2cc;" vertex="1" parent="ktjWSUvB8bS-gP2VC31j-53">
          <mxGeometry width="87.40983606557377" height="80" as="geometry" />
        </mxCell>
        <mxCell id="ktjWSUvB8bS-gP2VC31j-14" value="OSS云存储" style="rounded=1;whiteSpace=wrap;html=1;fontSize=14;fillColor=#fff2cc;" vertex="1" parent="ktjWSUvB8bS-gP2VC31j-53">
          <mxGeometry x="107.73770491803279" y="20" width="121.9672131147541" height="40" as="geometry" />
        </mxCell>
        <mxCell id="ktjWSUvB8bS-gP2VC31j-15" value="Asset静态文件" style="rounded=1;whiteSpace=wrap;html=1;fontSize=14;fillColor=#fff2cc;" vertex="1" parent="ktjWSUvB8bS-gP2VC31j-53">
          <mxGeometry x="239.8688524590164" y="20" width="126.0327868852459" height="40" as="geometry" />
        </mxCell>
        <mxCell id="ktjWSUvB8bS-gP2VC31j-16" value="数据库" style="rounded=1;whiteSpace=wrap;html=1;fontSize=14;fillColor=#fff2cc;" vertex="1" parent="ktjWSUvB8bS-gP2VC31j-53">
          <mxGeometry x="376.0655737704918" y="20" width="99.60655737704919" height="40" as="geometry" />
        </mxCell>
        <mxCell id="ktjWSUvB8bS-gP2VC31j-17" value="数据接口" style="rounded=1;whiteSpace=wrap;html=1;fontSize=14;fillColor=#fff2cc;" vertex="1" parent="ktjWSUvB8bS-gP2VC31j-53">
          <mxGeometry x="487.8688524590164" y="20" width="99.60655737704919" height="40" as="geometry" />
        </mxCell>
        <mxCell id="ktjWSUvB8bS-gP2VC31j-54" value="" style="group" vertex="1" connectable="0" parent="1">
          <mxGeometry x="40" y="350" width="620" height="80" as="geometry" />
        </mxCell>
        <mxCell id="ktjWSUvB8bS-gP2VC31j-40" value="" style="rounded=0;whiteSpace=wrap;html=1;fontSize=14;" vertex="1" parent="ktjWSUvB8bS-gP2VC31j-54">
          <mxGeometry width="620" height="80" as="geometry" />
        </mxCell>
        <mxCell id="ktjWSUvB8bS-gP2VC31j-39" value="业务支持" style="rounded=0;whiteSpace=wrap;html=1;fontSize=14;fillColor=#d9ead3;" vertex="1" parent="ktjWSUvB8bS-gP2VC31j-54">
          <mxGeometry width="87.98679867986799" height="80" as="geometry" />
        </mxCell>
        <mxCell id="ktjWSUvB8bS-gP2VC31j-41" value="公共组件" style="rounded=1;whiteSpace=wrap;html=1;fontSize=14;fillColor=#d9ead3;" vertex="1" parent="ktjWSUvB8bS-gP2VC31j-54">
          <mxGeometry x="108.44918032786886" y="17.5" width="135.48524590163936" height="45" as="geometry" />
        </mxCell>
        <mxCell id="ktjWSUvB8bS-gP2VC31j-42" value="第三方组件" style="rounded=1;whiteSpace=wrap;html=1;fontSize=14;fillColor=#d9ead3;" vertex="1" parent="ktjWSUvB8bS-gP2VC31j-54">
          <mxGeometry x="271.3770491803279" y="20" width="157.12426229508196" height="42.5" as="geometry" />
        </mxCell>
        <mxCell id="ktjWSUvB8bS-gP2VC31j-43" value="腾讯地图API" style="rounded=1;whiteSpace=wrap;html=1;fontSize=14;fillColor=#d9ead3;" vertex="1" parent="ktjWSUvB8bS-gP2VC31j-54">
          <mxGeometry x="457.3770491803279" y="20" width="132.13114754098362" height="40" as="geometry" />
        </mxCell>
        <mxCell id="ktjWSUvB8bS-gP2VC31j-65" value="" style="group" vertex="1" connectable="0" parent="1">
          <mxGeometry x="690" y="350" width="110" height="310" as="geometry" />
        </mxCell>
        <mxCell id="ktjWSUvB8bS-gP2VC31j-29" value="" style="rounded=0;whiteSpace=wrap;html=1;fontSize=14;" vertex="1" parent="ktjWSUvB8bS-gP2VC31j-65">
          <mxGeometry width="110" height="310" as="geometry" />
        </mxCell>
        <mxCell id="ktjWSUvB8bS-gP2VC31j-30" value="技术架构" style="rounded=0;whiteSpace=wrap;html=1;fontSize=14;fillColor=#ffe1b2;" vertex="1" parent="ktjWSUvB8bS-gP2VC31j-65">
          <mxGeometry width="110" height="60" as="geometry" />
        </mxCell>
        <mxCell id="ktjWSUvB8bS-gP2VC31j-31" value="底层封装" style="rounded=1;whiteSpace=wrap;html=1;fontSize=14;fillColor=#ffe1b2;" vertex="1" parent="ktjWSUvB8bS-gP2VC31j-65">
          <mxGeometry x="18.5" y="254" width="73" height="40" as="geometry" />
        </mxCell>
        <mxCell id="ktjWSUvB8bS-gP2VC31j-33" value="接口聚合" style="rounded=1;whiteSpace=wrap;html=1;fontSize=14;fillColor=#ffe1b2;" vertex="1" parent="ktjWSUvB8bS-gP2VC31j-65">
          <mxGeometry x="18.5" y="194" width="73" height="40" as="geometry" />
        </mxCell>
        <mxCell id="ktjWSUvB8bS-gP2VC31j-35" value="数据展示" style="rounded=1;whiteSpace=wrap;html=1;fontSize=14;fillColor=#ffe1b2;" vertex="1" parent="ktjWSUvB8bS-gP2VC31j-65">
          <mxGeometry x="18.5" y="134" width="73" height="40" as="geometry" />
        </mxCell>
        <mxCell id="ktjWSUvB8bS-gP2VC31j-36" value="交互控制" style="rounded=1;whiteSpace=wrap;html=1;fontSize=14;fillColor=#ffe1b2;" vertex="1" parent="ktjWSUvB8bS-gP2VC31j-65">
          <mxGeometry x="18.5" y="74" width="73" height="40" as="geometry" />
        </mxCell>
        <mxCell id="ktjWSUvB8bS-gP2VC31j-66" value="" style="group" vertex="1" connectable="0" parent="1">
          <mxGeometry x="40" y="40" width="760" height="280" as="geometry" />
        </mxCell>
        <mxCell id="ktjWSUvB8bS-gP2VC31j-1" value="" style="rounded=0;whiteSpace=wrap;html=1;movable=1;resizable=1;rotatable=1;deletable=1;editable=1;locked=0;connectable=1;" vertex="1" parent="ktjWSUvB8bS-gP2VC31j-66">
          <mxGeometry width="760" height="280" as="geometry" />
        </mxCell>
        <mxCell id="ktjWSUvB8bS-gP2VC31j-2" value="&lt;font style=&quot;font-size: 14px;&quot;&gt;业务模块&lt;/font&gt;" style="rounded=0;whiteSpace=wrap;html=1;movable=1;resizable=1;rotatable=1;deletable=1;editable=1;locked=0;connectable=1;fillColor=#dff8ff;strokeColor=#6c8ebf;" vertex="1" parent="ktjWSUvB8bS-gP2VC31j-66">
          <mxGeometry width="86" height="280" as="geometry" />
        </mxCell>
        <mxCell id="ktjWSUvB8bS-gP2VC31j-58" value="主模块" style="swimlane;whiteSpace=wrap;html=1;fontSize=14;fillColor=#cce5ff;strokeColor=#36393d;" vertex="1" parent="ktjWSUvB8bS-gP2VC31j-66">
          <mxGeometry x="107" y="20" width="93" height="240" as="geometry" />
        </mxCell>
        <mxCell id="ktjWSUvB8bS-gP2VC31j-68" value="滚动展示" style="rounded=0;whiteSpace=wrap;html=1;fontSize=14;fillColor=#cce5ff;strokeColor=#36393d;" vertex="1" parent="ktjWSUvB8bS-gP2VC31j-58">
          <mxGeometry x="10" y="38" width="73" height="40" as="geometry" />
        </mxCell>
        <mxCell id="ktjWSUvB8bS-gP2VC31j-59" value="导览模块" style="swimlane;whiteSpace=wrap;html=1;fontSize=14;fillColor=#cce5ff;strokeColor=#36393d;" vertex="1" parent="ktjWSUvB8bS-gP2VC31j-66">
          <mxGeometry x="215" y="20" width="93" height="240" as="geometry" />
        </mxCell>
        <mxCell id="ktjWSUvB8bS-gP2VC31j-60" value="预约模块" style="swimlane;whiteSpace=wrap;html=1;fontSize=14;fillColor=#cce5ff;strokeColor=#36393d;" vertex="1" parent="ktjWSUvB8bS-gP2VC31j-66">
          <mxGeometry x="322" y="20" width="93" height="200" as="geometry" />
        </mxCell>
        <mxCell id="ktjWSUvB8bS-gP2VC31j-61" value="商城模块" style="swimlane;whiteSpace=wrap;html=1;fontSize=14;fillColor=#cce5ff;strokeColor=#36393d;" vertex="1" parent="ktjWSUvB8bS-gP2VC31j-66">
          <mxGeometry x="430" y="20" width="93" height="200" as="geometry" />
        </mxCell>
        <mxCell id="ktjWSUvB8bS-gP2VC31j-109" value="美食订餐" style="rounded=0;whiteSpace=wrap;html=1;fontSize=14;fillColor=#cce5ff;strokeColor=#36393d;" vertex="1" parent="ktjWSUvB8bS-gP2VC31j-61">
          <mxGeometry x="10" y="40" width="73" height="40" as="geometry" />
        </mxCell>
        <mxCell id="ktjWSUvB8bS-gP2VC31j-62" value="便民模块" style="swimlane;whiteSpace=wrap;html=1;fontSize=14;fillColor=#cce5ff;strokeColor=#36393d;" vertex="1" parent="ktjWSUvB8bS-gP2VC31j-66">
          <mxGeometry x="538" y="20" width="93" height="200" as="geometry" />
        </mxCell>
        <mxCell id="ktjWSUvB8bS-gP2VC31j-63" value="图文模块" style="swimlane;whiteSpace=wrap;html=1;fontSize=14;fillColor=#cce5ff;strokeColor=#36393d;" vertex="1" parent="ktjWSUvB8bS-gP2VC31j-66">
          <mxGeometry x="645.5" y="20" width="93" height="200" as="geometry" />
        </mxCell>
        <mxCell id="ktjWSUvB8bS-gP2VC31j-69" value="功能入口" style="rounded=0;whiteSpace=wrap;html=1;fontSize=14;fillColor=#cce5ff;strokeColor=#36393d;" vertex="1" parent="ktjWSUvB8bS-gP2VC31j-66">
          <mxGeometry x="117" y="110" width="73" height="40" as="geometry" />
        </mxCell>
        <mxCell id="ktjWSUvB8bS-gP2VC31j-70" value="信息播报" style="rounded=0;whiteSpace=wrap;html=1;fontSize=14;fillColor=#cce5ff;strokeColor=#36393d;" vertex="1" parent="ktjWSUvB8bS-gP2VC31j-66">
          <mxGeometry x="117" y="160" width="73" height="40" as="geometry" />
        </mxCell>
        <mxCell id="ktjWSUvB8bS-gP2VC31j-83" value="探索模块" style="rounded=0;whiteSpace=wrap;html=1;fontSize=14;fillColor=#cce5ff;strokeColor=#36393d;" vertex="1" parent="ktjWSUvB8bS-gP2VC31j-66">
          <mxGeometry x="117" y="210" width="73" height="40" as="geometry" />
        </mxCell>
        <mxCell id="ktjWSUvB8bS-gP2VC31j-84" value="点位导航" style="rounded=0;whiteSpace=wrap;html=1;fontSize=14;fillColor=#cce5ff;strokeColor=#36393d;" vertex="1" parent="ktjWSUvB8bS-gP2VC31j-66">
          <mxGeometry x="225" y="60" width="73" height="40" as="geometry" />
        </mxCell>
        <mxCell id="ktjWSUvB8bS-gP2VC31j-85" value="场所筛选" style="rounded=0;whiteSpace=wrap;html=1;fontSize=14;fillColor=#cce5ff;strokeColor=#36393d;" vertex="1" parent="ktjWSUvB8bS-gP2VC31j-66">
          <mxGeometry x="225" y="110" width="73" height="40" as="geometry" />
        </mxCell>
        <mxCell id="ktjWSUvB8bS-gP2VC31j-86" value="景点路线" style="rounded=0;whiteSpace=wrap;html=1;fontSize=14;fillColor=#cce5ff;strokeColor=#36393d;" vertex="1" parent="ktjWSUvB8bS-gP2VC31j-66">
          <mxGeometry x="225" y="160" width="73" height="40" as="geometry" />
        </mxCell>
        <mxCell id="ktjWSUvB8bS-gP2VC31j-87" value="景点播报" style="rounded=0;whiteSpace=wrap;html=1;fontSize=14;fillColor=#cce5ff;strokeColor=#36393d;" vertex="1" parent="ktjWSUvB8bS-gP2VC31j-66">
          <mxGeometry x="225" y="210" width="73" height="40" as="geometry" />
        </mxCell>
        <mxCell id="ktjWSUvB8bS-gP2VC31j-88" value="景点卡片" style="rounded=0;whiteSpace=wrap;html=1;fontSize=14;fillColor=#cce5ff;strokeColor=#36393d;" vertex="1" parent="ktjWSUvB8bS-gP2VC31j-66">
          <mxGeometry x="332" y="60" width="73" height="40" as="geometry" />
        </mxCell>
        <mxCell id="ktjWSUvB8bS-gP2VC31j-107" value="景点预约" style="rounded=0;whiteSpace=wrap;html=1;fontSize=14;fillColor=#cce5ff;strokeColor=#36393d;" vertex="1" parent="ktjWSUvB8bS-gP2VC31j-66">
          <mxGeometry x="332" y="110" width="73" height="40" as="geometry" />
        </mxCell>
        <mxCell id="ktjWSUvB8bS-gP2VC31j-108" value="预约查询" style="rounded=0;whiteSpace=wrap;html=1;fontSize=14;fillColor=#cce5ff;strokeColor=#36393d;" vertex="1" parent="ktjWSUvB8bS-gP2VC31j-66">
          <mxGeometry x="332" y="160" width="73" height="40" as="geometry" />
        </mxCell>
        <mxCell id="ktjWSUvB8bS-gP2VC31j-110" value="民宿预定" style="rounded=0;whiteSpace=wrap;html=1;fontSize=14;fillColor=#cce5ff;strokeColor=#36393d;" vertex="1" parent="ktjWSUvB8bS-gP2VC31j-66">
          <mxGeometry x="440" y="110" width="73" height="40" as="geometry" />
        </mxCell>
        <mxCell id="ktjWSUvB8bS-gP2VC31j-111" value="特产购买" style="rounded=0;whiteSpace=wrap;html=1;fontSize=14;fillColor=#cce5ff;strokeColor=#36393d;" vertex="1" parent="ktjWSUvB8bS-gP2VC31j-66">
          <mxGeometry x="440" y="160" width="73" height="40" as="geometry" />
        </mxCell>
        <mxCell id="ktjWSUvB8bS-gP2VC31j-112" value="找厕所" style="rounded=0;whiteSpace=wrap;html=1;fontSize=14;fillColor=#cce5ff;strokeColor=#36393d;" vertex="1" parent="ktjWSUvB8bS-gP2VC31j-66">
          <mxGeometry x="548" y="60" width="73" height="40" as="geometry" />
        </mxCell>
        <mxCell id="ktjWSUvB8bS-gP2VC31j-113" value="看天气" style="rounded=0;whiteSpace=wrap;html=1;fontSize=14;fillColor=#cce5ff;strokeColor=#36393d;" vertex="1" parent="ktjWSUvB8bS-gP2VC31j-66">
          <mxGeometry x="548" y="110" width="73" height="40" as="geometry" />
        </mxCell>
        <mxCell id="ktjWSUvB8bS-gP2VC31j-114" value="查交通" style="rounded=0;whiteSpace=wrap;html=1;fontSize=14;fillColor=#cce5ff;strokeColor=#36393d;" vertex="1" parent="ktjWSUvB8bS-gP2VC31j-66">
          <mxGeometry x="548" y="160" width="73" height="40" as="geometry" />
        </mxCell>
        <mxCell id="ktjWSUvB8bS-gP2VC31j-115" value="景区图集" style="rounded=0;whiteSpace=wrap;html=1;fontSize=14;fillColor=#cce5ff;strokeColor=#36393d;" vertex="1" parent="ktjWSUvB8bS-gP2VC31j-66">
          <mxGeometry x="655.5" y="60" width="73" height="40" as="geometry" />
        </mxCell>
        <mxCell id="ktjWSUvB8bS-gP2VC31j-116" value="景点文学" style="rounded=0;whiteSpace=wrap;html=1;fontSize=14;fillColor=#cce5ff;strokeColor=#36393d;" vertex="1" parent="ktjWSUvB8bS-gP2VC31j-66">
          <mxGeometry x="655.5" y="110" width="73" height="40" as="geometry" />
        </mxCell>
        <mxCell id="ktjWSUvB8bS-gP2VC31j-117" value="非遗视频" style="rounded=0;whiteSpace=wrap;html=1;fontSize=14;fillColor=#cce5ff;strokeColor=#36393d;" vertex="1" parent="ktjWSUvB8bS-gP2VC31j-66">
          <mxGeometry x="655.5" y="160" width="73" height="40" as="geometry" />
        </mxCell>
      </root>
    </mxGraphModel>
  </diagram>
</mxfile>
